<?xml version="1.0" encoding="UTF-8"?>
<svg version="1.1" xmlns="http://www.w3.org/2000/svg" width="512" height="512">
<path d="M0 0 C1.01790619 0.00215515 2.03581238 0.0043103 3.08456421 0.00653076 C17.69363523 0.05620146 32.02575853 0.30709809 46.375 3.3125 C47.34985352 3.51117676 48.32470703 3.70985352 49.32910156 3.91455078 C97.7109774 14.03517194 141.69928269 35.9516877 177.375 70.3125 C178.3640332 71.26068604 178.3640332 71.26068604 179.37304688 72.22802734 C188.86130305 81.37247479 197.6012044 90.66984009 205.375 101.3125 C206.23306152 102.46355017 207.09113451 103.61459177 207.94921875 104.765625 C213.98736829 112.95680614 219.34595521 121.47054105 224.375 130.3125 C224.73948242 130.94430176 225.10396484 131.57610352 225.47949219 132.22705078 C247.08534998 169.97532572 256.85198095 212.74189997 256.6875 255.9375 C256.68534485 256.95540619 256.6831897 257.97331238 256.68096924 259.02206421 C256.63129854 273.63113523 256.38040191 287.96325853 253.375 302.3125 C253.07698486 303.77478027 253.07698486 303.77478027 252.77294922 305.26660156 C242.65232806 353.6484774 220.7358123 397.63678269 186.375 433.3125 C185.74287598 433.97185547 185.11075195 434.63121094 184.45947266 435.31054688 C175.31502521 444.79880305 166.01765991 453.5387044 155.375 461.3125 C154.22394983 462.17056152 153.07290823 463.02863451 151.921875 463.88671875 C143.73224019 469.92427396 135.22961724 475.30707302 126.375 480.3125 C125.66778809 480.7146875 124.96057617 481.116875 124.23193359 481.53125 C101.09654164 494.5566741 75.92537591 503.30551461 49.9375 508.625 C49.21860596 508.77235596 48.49971191 508.91971191 47.7590332 509.0715332 C33.08339502 511.86090125 18.55831162 512.66142619 3.64770508 512.62817383 C0.70811513 512.6250221 -2.2304558 512.64854926 -5.16992188 512.67382812 C-18.54306192 512.71848737 -31.43916711 511.51301542 -44.625 509.3125 C-46.33055054 509.03031616 -46.33055054 509.03031616 -48.07055664 508.74243164 C-91.33802759 500.97044532 -132.38793216 480.98345309 -165.625 452.3125 C-166.37007813 451.67828125 -167.11515625 451.0440625 -167.8828125 450.390625 C-181.38779833 438.57948485 -194.05918743 425.82889772 -204.625 411.3125 C-205.48149066 410.16255169 -206.33826433 409.01281411 -207.1953125 407.86328125 C-213.23534209 399.67315742 -218.61867614 391.16870382 -223.625 382.3125 C-224.0271875 381.60528809 -224.429375 380.89807617 -224.84375 380.16943359 C-237.8691741 357.03404164 -246.61801461 331.86287591 -251.9375 305.875 C-252.08485596 305.15610596 -252.23221191 304.43721191 -252.3840332 303.6965332 C-255.35789088 288.05024391 -255.99800362 272.57681954 -255.9375 256.6875 C-255.93534485 255.66959381 -255.9331897 254.65168762 -255.93096924 253.60293579 C-255.88129854 238.99386477 -255.63040191 224.66174147 -252.625 210.3125 C-252.42632324 209.33764648 -252.22764648 208.36279297 -252.02294922 207.35839844 C-241.90232806 158.9765226 -219.9858123 114.98821731 -185.625 79.3125 C-184.99287598 78.65314453 -184.36075195 77.99378906 -183.70947266 77.31445312 C-174.56502521 67.82619695 -165.26765991 59.0862956 -154.625 51.3125 C-153.47394983 50.45443848 -152.32290823 49.59636549 -151.171875 48.73828125 C-142.98224019 42.70072604 -134.47961724 37.31792698 -125.625 32.3125 C-124.91778809 31.9103125 -124.21057617 31.508125 -123.48193359 31.09375 C-100.34654164 18.0683259 -75.17537591 9.31948539 -49.1875 4 C-48.46860596 3.85264404 -47.74971191 3.70528809 -47.0090332 3.5534668 C-31.36274391 0.57960912 -15.88931954 -0.06050362 0 0 Z " fill="#0052B3" transform="translate(255.625,-0.3125)"/>
<path d="M0 0 C2.09430328 2.66595587 3.76390364 5.28907984 5.26171875 8.328125 C5.65810547 9.12734375 6.05449219 9.9265625 6.46289062 10.75 C6.86701172 11.575 7.27113281 12.4 7.6875 13.25 C8.10322266 14.09046875 8.51894531 14.9309375 8.94726562 15.796875 C9.96849759 17.86281553 10.98593626 19.93053408 12 22 C14.06277107 21.85805236 16.12521031 21.71127784 18.1875 21.5625 C19.33605469 21.48128906 20.48460937 21.40007812 21.66796875 21.31640625 C24.90244991 21.06672111 24.90244991 21.06672111 27.65625 20.46875 C29.94815051 20.0103699 31.98121998 19.89798678 34.3125 19.9375 C36.1378125 19.9684375 36.1378125 19.9684375 38 20 C32.72898586 26.41069287 26.90871848 32.18590512 21 38 C21.2673999 38.55461914 21.5347998 39.10923828 21.81030273 39.68066406 C23.02322585 42.20194132 24.2304128 44.72592388 25.4375 47.25 C25.85837891 48.12269531 26.27925781 48.99539063 26.71289062 49.89453125 C27.11572266 50.73886719 27.51855469 51.58320313 27.93359375 52.453125 C28.30540771 53.22817383 28.67722168 54.00322266 29.06030273 54.80175781 C29.94066379 56.86119427 30.52774502 58.8150046 31 61 C25.7936703 59.41980408 21.01626689 57.22115005 16.125 54.875 C15.34125 54.50246094 14.5575 54.12992187 13.75 53.74609375 C11.83186501 52.83381003 9.91572671 51.91733016 8 51 C7.49025635 51.51498047 6.9805127 52.02996094 6.45532227 52.56054688 C4.16029352 54.87627044 1.86145832 57.18817781 -0.4375 59.5 C-1.64116211 60.71623047 -1.64116211 60.71623047 -2.86914062 61.95703125 C-3.63291016 62.72402344 -4.39667969 63.49101562 -5.18359375 64.28125 C-5.89056396 64.99345703 -6.59753418 65.70566406 -7.32592773 66.43945312 C-9 68 -9 68 -10 68 C-9.33333333 59.33333333 -8.66666667 50.66666667 -8 42 C-15.26 38.37 -22.52 34.74 -30 31 C-26.57446892 28.71631261 -24.42870709 28.46298055 -20.375 27.9375 C-18.51101563 27.69193359 -18.51101563 27.69193359 -16.609375 27.44140625 C-12.40875544 26.92769412 -8.20946649 26.43546205 -4 26 C-3.87882812 24.87722656 -3.75765625 23.75445312 -3.6328125 22.59765625 C-2.78489884 14.95363779 -1.90106622 7.46847444 0 0 Z " fill="#F8D646" transform="translate(334,304)"/>
<path d="M0 0 C1.91397959 2.87096939 2.35327994 4.04397188 2.8515625 7.30859375 C2.98046875 8.13810547 3.109375 8.96761719 3.2421875 9.82226562 C3.36851562 10.68529297 3.49484375 11.54832031 3.625 12.4375 C3.82609375 13.72624023 3.82609375 13.72624023 4.03125 15.04101562 C4.59894306 18.7744664 5 22.20707982 5 26 C5.60996826 26.08564209 6.21993652 26.17128418 6.84838867 26.25952148 C9.62830451 26.65069064 12.40790264 27.04407444 15.1875 27.4375 C16.14720703 27.57220703 17.10691406 27.70691406 18.09570312 27.84570312 C19.02705078 27.97783203 19.95839844 28.10996094 20.91796875 28.24609375 C21.77156982 28.36654053 22.6251709 28.4869873 23.50463867 28.61108398 C26.02066964 29.00322148 28.50697664 29.48265373 31 30 C28.33404413 32.09430328 25.71092016 33.76390364 22.671875 35.26171875 C21.87265625 35.65810547 21.0734375 36.05449219 20.25 36.46289062 C19.425 36.86701172 18.6 37.27113281 17.75 37.6875 C16.90953125 38.10322266 16.0690625 38.51894531 15.203125 38.94726562 C13.13718447 39.96849759 11.06946592 40.98593626 9 42 C9.06058594 42.78761719 9.12117188 43.57523437 9.18359375 44.38671875 C9.7890625 52.2578125 10.39453125 60.12890625 11 68 C4.58930713 62.72898586 -1.18590512 56.90871848 -7 51 C-7.55461914 51.2673999 -8.10923828 51.5347998 -8.68066406 51.81030273 C-11.20194132 53.02322585 -13.72592388 54.2304128 -16.25 55.4375 C-17.12269531 55.85837891 -17.99539062 56.27925781 -18.89453125 56.71289062 C-19.73886719 57.11572266 -20.58320313 57.51855469 -21.453125 57.93359375 C-22.22817383 58.30540771 -23.00322266 58.67722168 -23.80175781 59.06030273 C-25.86119427 59.94066379 -27.8150046 60.52774502 -30 61 C-28.41980408 55.7936703 -26.22115005 51.01626689 -23.875 46.125 C-23.50246094 45.34125 -23.12992188 44.5575 -22.74609375 43.75 C-21.83381003 41.83186501 -20.91733016 39.91572671 -20 38 C-20.7724707 37.23538452 -20.7724707 37.23538452 -21.56054688 36.45532227 C-23.87627044 34.16029352 -26.18817781 31.86145832 -28.5 29.5625 C-29.31082031 28.76005859 -30.12164062 27.95761719 -30.95703125 27.13085938 C-31.72402344 26.36708984 -32.49101562 25.60332031 -33.28125 24.81640625 C-33.99345703 24.10943604 -34.70566406 23.40246582 -35.43945312 22.67407227 C-37 21 -37 21 -37 20 C-36.06994141 20.09087891 -36.06994141 20.09087891 -35.12109375 20.18359375 C-27.08775544 20.94366215 -19.05213818 21.48289021 -11 22 C-7.37 14.74 -3.74 7.48 0 0 Z " fill="#F9D646" transform="translate(177,304)"/>
<path d="M0 0 C6.41069287 5.27101414 12.18590512 11.09128152 18 17 C18.55461914 16.7326001 19.10923828 16.4652002 19.68066406 16.18969727 C22.20194132 14.97677415 24.72592388 13.7695872 27.25 12.5625 C28.12269531 12.14162109 28.99539063 11.72074219 29.89453125 11.28710938 C30.73886719 10.88427734 31.58320313 10.48144531 32.453125 10.06640625 C33.22817383 9.69459229 34.00322266 9.32277832 34.80175781 8.93969727 C36.86119427 8.05933621 38.8150046 7.47225498 41 7 C39.41980408 12.2063297 37.22115005 16.98373311 34.875 21.875 C34.50246094 22.65875 34.12992187 23.4425 33.74609375 24.25 C32.83381003 26.16813499 31.91733016 28.08427329 31 30 C31.51498047 30.50974365 32.02996094 31.0194873 32.56054688 31.54467773 C34.87627044 33.83970648 37.18817781 36.13854168 39.5 38.4375 C40.31082031 39.23994141 41.12164062 40.04238281 41.95703125 40.86914062 C42.72402344 41.63291016 43.49101562 42.39667969 44.28125 43.18359375 C44.99345703 43.89056396 45.70566406 44.59753418 46.43945312 45.32592773 C48 47 48 47 48 48 C42.35199208 48.21313237 37.33562345 47.62010368 31.80859375 46.4375 C28.32097946 45.82043166 28.32097946 45.82043166 22 46 C18.37 53.26 14.74 60.52 11 68 C10.67 68 10.34 68 10 68 C7.81974898 59.43472814 6.94635244 50.76886148 6 42 C4.865625 41.896875 3.73125 41.79375 2.5625 41.6875 C-5.01566272 40.85901919 -12.50469614 39.36825868 -20 38 C-17.33404413 35.90569672 -14.71092016 34.23609636 -11.671875 32.73828125 C-10.87265625 32.34189453 -10.0734375 31.94550781 -9.25 31.53710938 C-8.425 31.13298828 -7.6 30.72886719 -6.75 30.3125 C-5.90953125 29.89677734 -5.0690625 29.48105469 -4.203125 29.05273438 C-2.13718447 28.03150241 -0.06946592 27.01406374 2 26 C1.44944191 17.31992454 0.84592214 8.65720313 0 0 Z " fill="#F9D646" transform="translate(324,140)"/>
<path d="M0 0 C0.66 0 1.32 0 2 0 C2.9860117 3.03949018 3.96256125 6.08194176 4.9375 9.125 C5.35418945 10.40890625 5.35418945 10.40890625 5.77929688 11.71875 C6.04677734 12.55664062 6.31425781 13.39453125 6.58984375 14.2578125 C6.95903931 15.40467529 6.95903931 15.40467529 7.33569336 16.57470703 C8.09195295 19.33570768 8.52937497 22.1762498 9 25 C17.58 25 26.16 25 35 25 C29.375 30.625 29.375 30.625 26.44921875 32.67578125 C25.83369141 33.11083984 25.21816406 33.54589844 24.58398438 33.99414062 C23.64522461 34.64672852 23.64522461 34.64672852 22.6875 35.3125 C22.04232422 35.76689453 21.39714844 36.22128906 20.73242188 36.68945312 C19.15802858 37.79735952 17.57944354 38.89930525 16 40 C17.33576996 46.56753564 19.16647252 52.82274118 21.29296875 59.1796875 C22 62 22 62 21 65 C18.74957738 63.39642346 16.49964941 61.79216064 14.25 60.1875 C13.61578125 59.73568359 12.9815625 59.28386719 12.328125 58.81835938 C11.709375 58.37685547 11.090625 57.93535156 10.453125 57.48046875 C9.84919922 57.05427246 9.24527344 56.62807617 8.62304688 56.18896484 C7 55 7 55 4.859375 53.11328125 C3.02045041 51.7575887 3.02045041 51.7575887 0.64672852 52.26025391 C-2.14554839 53.04067998 -3.87021028 54.02801509 -6.20703125 55.72265625 C-6.95791016 56.26083984 -7.70878906 56.79902344 -8.48242188 57.35351562 C-9.25134766 57.91748047 -10.02027344 58.48144531 -10.8125 59.0625 C-11.99489258 59.91424805 -11.99489258 59.91424805 -13.20117188 60.78320312 C-15.13973082 62.18131534 -17.07227224 63.58701082 -19 65 C-20.12904577 61.61286268 -19.88056646 60.93658922 -18.75 57.69140625 C-18.4715625 56.86189453 -18.193125 56.03238281 -17.90625 55.17773438 C-17.30329169 53.43773184 -16.69912958 51.69814598 -16.09375 49.95898438 C-15.8153125 49.12818359 -15.536875 48.29738281 -15.25 47.44140625 C-14.98703125 46.68545166 -14.7240625 45.92949707 -14.453125 45.15063477 C-13.92041726 42.62228216 -13.97506169 41.37293862 -15 39 C-16.77380696 37.28420395 -16.77380696 37.28420395 -19.03515625 35.80078125 C-20.24848633 34.94709961 -20.24848633 34.94709961 -21.48632812 34.07617188 C-22.33646484 33.49416016 -23.18660156 32.91214844 -24.0625 32.3125 C-25.74273249 31.14457991 -27.42122417 29.97414992 -29.09765625 28.80078125 C-29.84539307 28.28684814 -30.59312988 27.77291504 -31.36352539 27.2434082 C-32.17358032 26.62792114 -32.17358032 26.62792114 -33 26 C-33 25.67 -33 25.34 -33 25 C-24.42 25 -15.84 25 -7 25 C-6.34 22.03 -5.68 19.06 -5 16 C-4.15511468 13.12995016 -3.29244424 10.28317734 -2.375 7.4375 C-2.03082031 6.3537207 -2.03082031 6.3537207 -1.6796875 5.24804688 C-1.12325219 3.49759412 -0.56213636 1.74863027 0 0 Z " fill="#F8D646" transform="translate(255,101)"/>
<path d="M0 0 C-0.09087891 0.93005859 -0.09087891 0.93005859 -0.18359375 1.87890625 C-0.94366215 9.91224456 -1.48289021 17.94786182 -2 26 C5.26 29.63 12.52 33.26 20 37 C20 37.33 20 37.66 20 38 C11.43472814 40.18025102 2.76886148 41.05364756 -6 42 C-6.08564209 42.60996826 -6.17128418 43.21993652 -6.25952148 43.84838867 C-6.65069064 46.62830451 -7.04407444 49.40790264 -7.4375 52.1875 C-7.57220703 53.14720703 -7.70691406 54.10691406 -7.84570312 55.09570312 C-7.97783203 56.02705078 -8.10996094 56.95839844 -8.24609375 57.91796875 C-8.42676392 59.19837036 -8.42676392 59.19837036 -8.61108398 60.50463867 C-9.00322148 63.02066964 -9.48265373 65.50697664 -10 68 C-12.09430328 65.33404413 -13.76390364 62.71092016 -15.26171875 59.671875 C-15.65810547 58.87265625 -16.05449219 58.0734375 -16.46289062 57.25 C-16.86701172 56.425 -17.27113281 55.6 -17.6875 54.75 C-18.10322266 53.90953125 -18.51894531 53.0690625 -18.94726562 52.203125 C-19.96849759 50.13718447 -20.98593626 48.06946592 -22 46 C-30.68007546 46.55055809 -39.34279687 47.15407786 -48 48 C-42.72898586 41.58930713 -36.90871848 35.81409488 -31 30 C-31.26216309 29.45061768 -31.52432617 28.90123535 -31.79443359 28.33520508 C-32.98956068 25.82839826 -34.18230011 23.32046249 -35.375 20.8125 C-35.7875 19.94818359 -36.2 19.08386719 -36.625 18.19335938 C-37.02460938 17.35224609 -37.42421875 16.51113281 -37.8359375 15.64453125 C-38.20251465 14.87471924 -38.5690918 14.10490723 -38.94677734 13.31176758 C-40.04443886 10.90245907 -41.03527336 8.46520068 -42 6 C-38.72618005 7.28117007 -35.52930256 8.65271307 -32.35546875 10.1640625 C-31.51435547 10.56367188 -30.67324219 10.96328125 -29.80664062 11.375 C-28.94232422 11.7875 -28.07800781 12.2 -27.1875 12.625 C-26.30384766 13.04523438 -25.42019531 13.46546875 -24.50976562 13.8984375 C-22.33918982 14.93092761 -20.16929448 15.9648212 -18 17 C-17.23538452 16.2275293 -17.23538452 16.2275293 -16.45532227 15.43945312 C-14.16029352 13.12372956 -11.86145832 10.81182219 -9.5625 8.5 C-8.76005859 7.68917969 -7.95761719 6.87835938 -7.13085938 6.04296875 C-6.36708984 5.27597656 -5.60332031 4.50898438 -4.81640625 3.71875 C-4.10943604 3.00654297 -3.40246582 2.29433594 -2.67407227 1.56054688 C-1 0 -1 0 0 0 Z " fill="#F9D746" transform="translate(188,140)"/>
<path d="M0 0 C2.61871558 2.61871558 4.68532751 4.75592847 6.796875 7.671875 C7.28027344 8.33574219 7.76367188 8.99960938 8.26171875 9.68359375 C8.75285156 10.36550781 9.24398437 11.04742187 9.75 11.75 C10.25660156 12.44738281 10.76320312 13.14476562 11.28515625 13.86328125 C12.52661661 15.57321722 13.76374599 17.28629616 15 19 C21.74829844 17.82033368 27.99931481 16.08108723 34.43359375 13.70703125 C37 13 37 13 40 14 C38.39642346 16.25042262 36.79216064 18.50035059 35.1875 20.75 C34.73568359 21.38421875 34.28386719 22.0184375 33.81835938 22.671875 C33.15610352 23.6 33.15610352 23.6 32.48046875 24.546875 C32.05427246 25.15080078 31.62807617 25.75472656 31.18896484 26.37695312 C30 28 30 28 28.11328125 30.140625 C26.7575887 31.97954959 26.7575887 31.97954959 27.26025391 34.35327148 C28.04067998 37.14554839 29.02801509 38.87021028 30.72265625 41.20703125 C31.52993164 42.33334961 31.52993164 42.33334961 32.35351562 43.48242188 C32.91748047 44.25134766 33.48144531 45.02027344 34.0625 45.8125 C34.91424805 46.99489258 34.91424805 46.99489258 35.78320312 48.20117188 C37.18131534 50.13973082 38.58701082 52.07227224 40 54 C36.61286268 55.12904577 35.93658922 54.88056646 32.69140625 53.75 C31.86189453 53.4715625 31.03238281 53.193125 30.17773438 52.90625 C28.43773184 52.30329169 26.69814598 51.69912958 24.95898438 51.09375 C24.12818359 50.8153125 23.29738281 50.536875 22.44140625 50.25 C21.68545166 49.98703125 20.92949707 49.7240625 20.15063477 49.453125 C17.62228216 48.92041726 16.37293862 48.97506169 14 50 C12.28420395 51.77380696 12.28420395 51.77380696 10.80078125 54.03515625 C10.23166016 54.84404297 9.66253906 55.65292969 9.07617188 56.48632812 C8.49416016 57.33646484 7.91214844 58.18660156 7.3125 59.0625 C6.14457991 60.74273249 4.97414992 62.42122417 3.80078125 64.09765625 C3.28684814 64.84539307 2.77291504 65.59312988 2.2434082 66.36352539 C1.62792114 67.17358032 1.62792114 67.17358032 1 68 C0.67 68 0.34 68 0 68 C0 59.42 0 50.84 0 42 C-2.97 41.34 -5.94 40.68 -9 40 C-11.87004984 39.15511468 -14.71682266 38.29244424 -17.5625 37.375 C-18.28501953 37.14554687 -19.00753906 36.91609375 -19.75195312 36.6796875 C-21.50240588 36.12325219 -23.25136973 35.56213636 -25 35 C-25 34.34 -25 33.68 -25 33 C-21.39809458 31.82627027 -17.79312849 30.66223744 -14.1875 29.5 C-13.16333984 29.16613281 -12.13917969 28.83226562 -11.08398438 28.48828125 C-10.10107422 28.17246094 -9.11816406 27.85664063 -8.10546875 27.53125 C-7.19949951 27.23798828 -6.29353027 26.94472656 -5.36010742 26.64257812 C-3 26 -3 26 0 26 C0 17.42 0 8.84 0 0 Z " fill="#F9D746" transform="translate(126,222)"/>
<path d="M0 0 C0.33 0 0.66 0 1 0 C1 8.58 1 17.16 1 26 C4.96 26.99 8.92 27.98 13 29 C15.26066142 29.69540922 17.51428422 30.41564574 19.75 31.1875 C20.75546875 31.53167969 21.7609375 31.87585938 22.796875 32.23046875 C23.52390625 32.48441406 24.2509375 32.73835938 25 33 C25 33.66 25 34.32 25 35 C22.8784714 35.8009229 20.75254958 36.59021092 18.625 37.375 C17.44164062 37.81585938 16.25828125 38.25671875 15.0390625 38.7109375 C10.4602026 40.17227577 5.71306159 41.05738768 1 42 C1 50.58 1 59.16 1 68 C-1.61871558 65.38128442 -3.68532751 63.24407153 -5.796875 60.328125 C-6.28027344 59.66425781 -6.76367188 59.00039063 -7.26171875 58.31640625 C-7.75285156 57.63449219 -8.24398438 56.95257813 -8.75 56.25 C-9.25660156 55.55261719 -9.76320313 54.85523438 -10.28515625 54.13671875 C-11.52661661 52.42678278 -12.76374599 50.71370384 -14 49 C-19.96394597 49.6643774 -25.13524866 51.29511105 -30.74609375 53.359375 C-35.68861607 55.10379464 -35.68861607 55.10379464 -39 54 C-37.39642346 51.74957738 -35.79216064 49.49964941 -34.1875 47.25 C-33.73568359 46.61578125 -33.28386719 45.9815625 -32.81835938 45.328125 C-32.15610352 44.4 -32.15610352 44.4 -31.48046875 43.453125 C-30.84117432 42.54723633 -30.84117432 42.54723633 -30.18896484 41.62304688 C-29 40 -29 40 -27.11328125 37.859375 C-25.7575887 36.02045041 -25.7575887 36.02045041 -26.26025391 33.64672852 C-27.04067998 30.85445161 -28.02801509 29.12978972 -29.72265625 26.79296875 C-30.26083984 26.04208984 -30.79902344 25.29121094 -31.35351562 24.51757812 C-31.91748047 23.74865234 -32.48144531 22.97972656 -33.0625 22.1875 C-33.91424805 21.00510742 -33.91424805 21.00510742 -34.78320312 19.79882812 C-36.18131534 17.86026918 -37.58701082 15.92772776 -39 14 C-35.64856234 12.88285411 -35.10500687 13.07403165 -31.9453125 14.25 C-31.16542969 14.5284375 -30.38554687 14.806875 -29.58203125 15.09375 C-27.95088539 15.69538091 -26.32066513 16.29952759 -24.69140625 16.90625 C-23.90894531 17.1846875 -23.12648438 17.463125 -22.3203125 17.75 C-21.61148926 18.01296875 -20.90266602 18.2759375 -20.17236328 18.546875 C-17.39359981 19.12648671 -15.68772428 18.91611047 -13 18 C-11.16637933 16.24979605 -11.16637933 16.24979605 -9.703125 13.96484375 C-9.13722656 13.15595703 -8.57132812 12.34707031 -7.98828125 11.51367188 C-7.41464844 10.66353516 -6.84101563 9.81339844 -6.25 8.9375 C-5.09104003 7.25738844 -3.92971688 5.57890367 -2.765625 3.90234375 C-2.25805664 3.15460693 -1.75048828 2.40687012 -1.22753906 1.63647461 C-0.82245117 1.09643799 -0.41736328 0.55640137 0 0 Z " fill="#FBD745" transform="translate(385,222)"/>
<path d="M0 0 C5.93621686 3.10302245 10.96243049 7.04593348 16.1328125 11.26953125 C18.79040941 13.25995745 18.79040941 13.25995745 21.41625977 12.77832031 C24.14073882 11.95760414 25.91110245 10.94233029 28.20703125 9.27734375 C29.33334961 8.47006836 29.33334961 8.47006836 30.48242188 7.64648438 C31.25134766 7.08251953 32.02027344 6.51855469 32.8125 5.9375 C33.60076172 5.36966797 34.38902344 4.80183594 35.20117188 4.21679688 C37.13973082 2.81868466 39.07227224 1.41298918 41 0 C42 2 42 2 41.546875 3.8918457 C41.28390625 4.64554443 41.0209375 5.39924316 40.75 6.17578125 C40.4715625 7.00400391 40.193125 7.83222656 39.90625 8.68554688 C39.30569483 10.4263803 38.70156919 12.16598638 38.09375 13.90429688 C37.8153125 14.73638672 37.536875 15.56847656 37.25 16.42578125 C36.85554688 17.56140503 36.85554688 17.56140503 36.453125 18.7199707 C35.89142864 21.54630813 36.0641769 23.27232745 37 26 C38.75020395 27.83362067 38.75020395 27.83362067 41.03515625 29.296875 C41.84404297 29.86277344 42.65292969 30.42867188 43.48632812 31.01171875 C44.7615332 31.87216797 44.7615332 31.87216797 46.0625 32.75 C47.74261156 33.90895997 49.42109633 35.07028312 51.09765625 36.234375 C51.84539307 36.74194336 52.59312988 37.24951172 53.36352539 37.77246094 C53.90356201 38.17754883 54.44359863 38.58263672 55 39 C55 39.33 55 39.66 55 40 C46.42 40 37.84 40 29 40 C28.01 43.63 27.02 47.26 26 51 C25.2845562 53.39996699 24.55801705 55.79670396 23.8125 58.1875 C23.46832031 59.29480469 23.12414062 60.40210938 22.76953125 61.54296875 C22.38861328 62.75919922 22.38861328 62.75919922 22 64 C21.34 64 20.68 64 20 64 C18.82865778 60.37649379 17.66372198 56.75096001 16.5 53.125 C16.16613281 52.09246094 15.83226562 51.05992187 15.48828125 49.99609375 C15.17246094 49.00996094 14.85664063 48.02382813 14.53125 47.0078125 C14.23798828 46.09660645 13.94472656 45.18540039 13.64257812 44.24658203 C13 42 13 42 13 40 C4.42 40 -4.16 40 -13 40 C-10.38128442 37.38128442 -8.24407153 35.31467249 -5.328125 33.203125 C-4.66425781 32.71972656 -4.00039062 32.23632812 -3.31640625 31.73828125 C-2.63449219 31.24714844 -1.95257813 30.75601562 -1.25 30.25 C-0.55261719 29.74339844 0.14476562 29.23679687 0.86328125 28.71484375 C2.57321722 27.47338339 4.28629616 26.23625401 6 25 C5.38858897 19.63785497 4.13012815 14.80331451 2.4375 9.6875 C0 2.24070248 0 2.24070248 0 0 Z " fill="#FBD845" transform="translate(235,346)"/>
</svg>
